The Criminal - Giungla Di Cemento (1960) Joseph Losey [XviD - Italian English Mp3]

Scheda

Giungla di cemento
Titolo originale The Criminal
Paese di produzione Gran Bretagna
Anno 1960
Durata 97 min
Colore B/N

Genere Gangster
Regia Joseph Losey
Sceneggiatura Alun Owen
Produttore Jack Greenwood
Fotografia Robert Krasker
Musiche Johnny Dankworth
Scenografia Scott MacGregor

Cast

Stanley Baker: Johnny Bannion
Margit Saad: Suzanne
Sam Wanamaker: Mike Carter
Patrick Magee: Barrows
Gregoire Aslan: Frank Saffron
Jill Bennett: Maggie
Laurence Naismith: Mr Town
Noel Willman: direttore del carcere
John Molloy: Snipe
Paul Stassino: Alfredo

Trama

Scontato un periodo di detenzione a Reading, Johnny Bannion, malavitoso cinico, ma leale, si riunisce alla banda, con la quale organizza la rapina ad un ippodromo, che frutta un cospicuo

bottino di 40.000 sterline. Tradito dalla sua ex, Maggie, gelosa della sua relazione con Suzanne, è costretto a tornare all' "ovile", con la prospettiva di una lunga permanenza, prima di

poter godere il frutto delle sue fatiche. Del resto, la sua conoscenza dell'ambiente del carcere e il rispetto di cui gode da parte di detenuti e anche secondini rendono sopportabile tale

prospettiva........

Storyline

American expatriate Joseph Losey ("The Servant"/"The Go-Between") directed this intense British underworld crime story about a career criminal and his downfall. It was tightly scripted by

Jimmy Sangster and Alun Owen. The Criminal plays as a tough prison pic, one that is more gritty than the usual British crime caper. It was originally advertised as "The Toughest Film Ever

Made in Britain!" I saw it on its new release on DVD, and was impressed with the quality of its b/w photography and with the way its grainy colors magnified the grim prison setting. It hits

the spot immediately as Cleo Laine sings over the opening credits a prison ballad entitled "Thieving Boy." But what elevates the film beyond its well-executed but familiar criminal double-

cross tale, are all the fine performances from the superb cast. Stanley Baker as a crime big shot named Johnny Bannion sparkles as the loner, hard-boiled con with a penchant for violence

and self-destruction. His greed for money and then for revenge blinds him and forces him to make bad decisions, and eventually he's too trapped to escape from his life. While Sam Wanamaker,

who like Joseph Losey fled to England as a result of the Hollywood blacklist, excels as his nemesis in the crime organization. Patrick Magee as the sadistic prison guard, gives a striking

performance as a demented servant of the public

DATI FILE:

General
Complete name : Giungla Di Cemento - The Criminal - Joseph Losey (1960) Italian English.avi
Format : AVI
Format/Info : Audio Video Interleave
File size : 810 MiB
Duration : 1h 32mn
Overall bit rate : 1 226 Kbps
Writing application : VirtualDubMod 1.5.10.2 (build 2540/release)
Writing library : VirtualDubMod build 2540/release

Video
ID : 0
Format : MPEG-4 Visual
Format profile : Advanced Simple@L5
Format settings, BVOP : Yes
Format settings, QPel : No
Format settings, GMC : No warppoints
Format settings, Matrix : Custom
Codec ID : XVID
Codec ID/Hint : XviD
Duration : 1h 32mn
Bit rate : 988 Kbps
Width : 608 pixels
Height : 384 pixels
Display aspect ratio : 1.583
Frame rate : 25.000 fps
Color space : YUV
Chroma subsampling : 4:2:0
Bit depth : 8 bits
Scan type : Progressive
Bits/(Pixel*Frame) : 0.169
Stream size : 653 MiB (81%)
Writing library : XviD 1.0.3 (UTC 2004-12-20)

Audio #1
ID : 1
Format : MPEG Audio
Format version : Version 1
Format profile : Layer 3
Mode : Joint stereo
Mode extension : MS Stereo
Codec ID : 55
Codec ID/Hint : MP3
Duration : 1h 32mn
Bit rate mode : Constant
Bit rate : 160 Kbps
Channel(s) : 2 channels
Sampling rate : 48.0 KHz
Stream size : 106 MiB (13%)
Alignment : Split accross interleaves
Interleave, duration : 40 ms (1.00 video frame)
Interleave, preload duration : 500 ms

Audio #2
ID : 2
Format : MPEG Audio
Format version : Version 1
Format profile : Layer 3
Codec ID : 55
Codec ID/Hint : MP3
Duration : 1h 32mn
Bit rate mode : Constant
Bit rate : 64.0 Kbps
Channel(s) : 1 channel
Sampling rate : 48.0 KHz
Stream size : 42.3 MiB (5%)
Alignment : Aligned on interleaves
Interleave, duration : 40 ms (1.00 video frame)
Interleave, preload duration : 504 ms
Writing library : LAME3.96r
Encoding settings : -m m -V 4 -q 2 -lowpass 16.5 -b 64